<svg width="697" height="702" viewBox="0 0 697 702" fill="none" xmlns="http://www.w3.org/2000/svg">
<path d="M200.34 201.667H140.34C103.003 201.667 84.3205 201.667 70.0598 208.933C57.5155 215.325 47.3242 225.516 40.9328 238.06C33.6665 252.321 33.6665 271.003 33.6665 308.34V561.674C33.6665 599.01 33.6665 617.67 40.9328 631.93C47.3242 644.474 57.5155 654.684 70.0598 661.074C84.3065 668.334 102.966 668.334 140.23 668.334H393.77C431.033 668.334 449.666 668.334 463.913 661.074C476.456 654.684 486.683 644.464 493.073 631.92C500.333 617.674 500.333 599.034 500.333 561.77V501.667" stroke="black" stroke-width="66.6667" stroke-linecap="round" stroke-linejoin="round"/>
<path d="M329.673 67.3335H269.673C232.336 67.3335 213.654 67.3335 199.393 74.5998C186.849 80.9912 176.658 91.1825 170.266 103.727C163 117.987 163 136.67 163 174.007V427.34C163 464.677 163 483.337 170.266 497.597C176.658 510.14 186.849 520.35 199.393 526.74C213.64 534 232.3 534 269.564 534H523.103C560.367 534 579 534 593.247 526.74C605.79 520.35 616.017 510.13 622.407 497.587C629.667 483.34 629.667 464.7 629.667 427.437V367.333M629.667 267.333V67.3335M629.667 67.3335L442 67.3333M629.667 67.3335L429.667 267.333" stroke="black" stroke-width="66.6667" stroke-linecap="round" stroke-linejoin="round"/>
</svg>
